<svg width="36" height="35" viewBox="0 0 36 35" fill="none" xmlns="http://www.w3.org/2000/svg">
<path fill-rule="evenodd" clip-rule="evenodd" d="M9.36942 33.7814H9.43771V33.3711H9.50601V33.0975H9.57431V32.8922H9.64261V32.7556H9.71091V32.619H9.77921V32.4824H9.84751V32.3458H9.91581V32.2775H9.98411V32.1409H10.0524V32.0726H10.1207V32.0043H10.189V31.936H10.2573V31.7994H10.3256V31.7311H10.3939V31.6628H10.5305V31.5945H10.5988V31.5262H24.4158V31.5945H24.4841V31.6628H24.6207V31.7311H24.689V31.7994H24.7573V31.936H24.8256V32.0043H24.8939V32.0726H24.9622V32.1409H25.0305V32.2775H25.0988V32.3458H25.1671V32.4824H25.2354V32.619H25.3037V32.7556H25.372V32.8922H25.4403V33.0975H25.5086V33.3711H25.5769V33.7814H25.6452V33.8497H9.36555V33.7814H9.36942ZM26.0593 31.5241H26.4012V31.4558H26.9485V31.3875H27.2904V31.3192H27.564V31.2509H27.8376V31.1826H28.043V31.1143H28.2483V31.046H28.4536V30.9777H28.5902V32.3458H28.6585V32.4141H28.7268V32.5507H28.8634V32.619H28.9317V32.6873H30.5047V32.7556H30.6413V32.8239H30.7096V32.8922H30.7779V32.9605H30.8462V33.0971H30.9145V33.8497H26.8106V33.3707H26.7423V33.0288H26.674V32.8235H26.6057V32.5498H26.5374V32.4132H26.4691V32.2766H26.4008V32.0713H26.3325V32.003H26.2642V31.8664H26.1959V31.7298H26.1276V31.5932H26.0593V31.5249V31.5241ZM8.89046 31.7294H8.82216V31.866H8.75387V32.0026H8.68557V32.0709H8.61727V32.2762H8.54897V32.4128H8.48067V32.6181H8.41237V32.8235H8.34407V33.0288H8.27577V33.3707H8.20747V33.8497H4.10352V33.0971H4.17182V32.9605H4.24012V32.8922H4.30842V32.8239H4.37672V32.7556H4.51332V32.6873H6.08634V32.619H6.15464V32.5507H6.29124V32.4141H6.35954V32.3458H6.42783V30.9777H6.56443V31.046H6.76976V31.1143H6.97509V31.1826H7.18041V31.2509H7.45404V31.3192H7.72766V31.3875H8.06959V31.4558H8.61684V31.5241H8.95876V31.5924H8.89046V31.729V31.7294ZM2.93943 18.6649H9.30069V18.7332H9.84794V18.8015H10.1899V18.8698H10.4635V18.9381H10.6688V19.0064H10.8741V19.0747H11.0107V19.143H11.1473V19.2113H11.3527V19.2796H11.4893V19.3479H11.5576V19.4162H11.6942V19.4845H11.8308V19.5528H11.8991V19.6211H12.0357V19.6894H12.104V19.7577H12.1722V19.826H12.2405V19.8943H12.3771V19.9626H12.4454V20.0309H12.5137V20.0992H12.582V20.1675H12.7186V20.2358H12.7869V20.3041H12.8552V20.3724H12.9918V20.4407H13.0601V20.509H13.1967V20.5773H13.265V20.6456H13.4016V20.7139H13.4699V20.7822H13.6065V20.8505H13.7431V20.9188H13.8114V20.9871H13.948V21.0554H14.0846V21.1237H14.2212V21.192H14.3578V21.2603H14.4944V21.3286H14.631V21.3969H14.7676V21.4652H14.9729V21.5335H15.1095V21.6018H15.3149V21.6701H15.5202V21.7384H15.7255V21.8067H15.9991V21.875H16.2045V21.9433H16.5464V22.0116H16.8883V22.0799H17.3673V22.1482H18.1881V22.2165H19.2143V27.073H19.2826V27.3467H19.3509V27.552H19.4192V27.6886H19.4875V27.8252H19.5558V27.8935H19.6241V27.9618H19.6924V28.0301H19.7607V28.0984H19.829V28.1667H19.8973V28.235H19.9656V28.3033H20.1022V28.3716H20.1705V28.4399H20.3071V28.5082H20.5125V28.5765H28.1048V28.5082H28.3101V28.4399H28.4467V28.3716H28.5833V28.3033H28.7199V28.235H28.7882V28.1667H28.8565V28.0984H28.9248V28.0301H28.9931V27.9618H29.0614V27.8935H29.1297V27.7569H29.198V27.6203H29.2663V27.4837H29.3346V27.2784H29.4029V22.2165H32.0704V24.6104H32.0021V25.0206H31.9338V25.3625H31.8655V25.6362H31.7973V25.9098H31.729V26.1151H31.6607V26.2517H31.5924V26.457H31.5241V26.5936H31.4558V26.7302H31.3875V26.8668H31.3192V27.0034H31.2509V27.14H31.1826V27.2083H31.1143V27.3449H31.046V27.4132H30.9777V27.5498H30.9094V27.6181H30.8411V27.7547H30.7728V27.823H30.7045V27.8913H30.6362V28.0279H30.5679V28.0962H30.4996V28.1645H30.4313V28.2328H30.363V28.3011H30.2947V28.3694H30.2264V28.4377H30.1581V28.506H30.0898V28.5743H30.0215V28.6426H29.9532V28.7109H29.8849V28.7792H29.8166V28.8475H29.68V28.9158H29.6117V28.9841H29.5434V29.0524H29.4068V29.1207H29.3385V29.189H29.2702V29.2573H29.1336V29.3256H29.0653V29.3939H28.9287V29.4622H28.7921V29.5305H28.6555V29.5988H28.5189V29.6671H28.3823V29.7354H28.2457V29.8037H28.1091V29.872H27.9038V29.9403H27.6985V30.0086H27.4931V30.0769H27.2878V30.1452H26.9459V30.2135H26.5357V30.2818H8.47766V30.2135H8.06744V30.1452H7.72552V30.0769H7.52019V30.0086H7.31486V29.9403H7.10954V29.872H6.90421V29.8037H6.76761V29.7354H6.63101V29.6671H6.49442V29.5988H6.35782V29.5305H6.22122V29.4622H6.08462V29.3939H5.94802V29.3256H5.87972V29.2573H5.74313V29.189H5.67483V29.1207H5.53823V29.0524H5.46993V28.9841H5.40163V28.9158H5.33333V28.8475H5.19673V28.7792H5.12844V28.7109H5.06014V28.6426H4.99184V28.5743H4.92354V28.506H4.85524V28.4377H4.78694V28.3694H4.71864V28.3011H4.65034V28.2328H4.58204V28.1645H4.51375V28.0962H4.44545V28.0279H4.37715V27.8913H4.30885V27.823H4.24055V27.7547H4.17225V27.6181H4.10395V27.5498H4.03565V27.4132H3.96735V27.3449H3.89905V27.2083H3.83076V27.14H3.76246V27.0034H3.69416V26.8668H3.62586V26.7302H3.55756V26.5936H3.48926V26.457H3.42096V26.2517H3.35266V26.1151H3.28436V25.9098H3.21607V25.6362H3.14777V25.3625H3.07947V25.0889H3.01117V24.61H2.94287V18.6589L2.93943 18.6649ZM29.3424 19.2805H32.9678V19.3488H33.1731V19.4171H33.3097V19.4854H33.378V19.5537H33.4463V19.622H33.5146V19.6903H33.5829V19.7586H33.6512V19.8269H33.7195V20.0322H33.7878V20.3058H33.8561V20.9897H29.4102V19.4167H29.3419V19.2801L29.3424 19.2805ZM16.4145 17.5704H16.5511V17.5021H16.6194V17.4338H16.756V17.3655H16.8243V17.2973H16.9609V17.229H17.0975V17.1607H17.3028V17.0924H17.5082V17.0241H17.8501V16.9558H18.9446V17.0241H19.2182V17.0924H19.4918V17.1607H19.6284V17.229H19.765V17.2973H19.9016V17.3655H20.0382V17.4338H20.1748V17.5021H20.2431V17.5704H20.3114V17.6387H20.448V17.707H20.5163V17.7753H20.5846V17.8436H20.6529V17.9119H20.7212V17.9802H20.7895V18.0485H20.8578V18.1851H20.9261V18.2534H20.9944V18.3217H21.0627V18.4583H21.131V18.5949H21.1993V18.7315H21.2676V18.8681H21.3359V19.0047H21.4042V19.2101H21.4725V19.4837H21.5408V26.9394H21.6091V27.3497H21.6774V27.418H20.8565V27.3497H20.7199V27.2814H20.6516V27.2131H20.5833V27.1448H20.515V27.0082H20.4467V19.7577H20.3784V19.4841H20.3101V19.3475H20.2418V19.1422H20.1735V19.0739H20.1052V18.9373H20.0369V18.869H19.9686V18.8007H19.9003V18.6641H19.832V18.5958H19.6954V18.5275H19.6271V18.4592H19.5588V18.3909H19.4222V18.3226H19.2857V18.2543H19.1491V18.186H18.9437V18.1177H18.6701V18.0494H17.7809V17.9811H17.3707V17.9128H17.0971V17.8445H16.8235V17.7762H16.6869V17.7079H16.4815V17.6396H16.4132V17.5713L16.4145 17.5704ZM1.16108 16.7496H1.22938V16.4759H1.29768V16.3393H1.36598V16.271H1.43428V16.1345H1.50258V16.0662H1.57088V15.9979H1.70747V15.9296H1.84407V15.8613H1.98067V15.793H9.84665V15.8613H10.3256V15.9296H10.6675V15.9979H11.0094V16.0662H11.2148V16.1345H11.4201V16.2027H11.6254V16.271H11.8308V16.3393H12.0361V16.4076H12.1727V16.4759H12.378V16.5442H12.5146V16.6125H12.6512V16.6808H12.7878V16.7491H12.8561V16.8174H12.9927V16.8857H13.1293V16.954H13.2659V17.0223H13.3342V17.0906H13.4708V17.1589H13.5391V17.2272H13.6757V17.2955H13.744V17.3638H13.8806V17.4321H13.9489V17.5004H14.0172V17.5687H14.1538V17.637H14.2221V17.7053H14.2904V17.7736H14.3587V17.8419H14.427V17.9102H14.5636V17.9785H14.6319V18.0468H14.7002V18.1151H14.8368V18.1834H14.9051V18.2517H15.0417V18.32H15.1783V18.3883H15.2466V18.4566H15.3832V18.5249H15.5198V18.5932H15.6564V18.6615H15.793V18.7298H15.9296V18.7981H16.1349V18.8664H16.3402V18.9347H16.5455V19.003H16.7509V19.0713H17.0245V19.1396H17.3664V19.2079H17.8454V19.2762H18.5979V19.3445H18.8033V19.4128H18.8716V19.4811H19.0082V19.6177H19.0765V19.686H19.1448V19.8226H19.2131V20.9854H17.8449V20.9171H17.2294V20.8488H16.8875V20.7805H16.5455V20.7122H16.2719V20.6439H16.0666V20.5756H15.8613V20.5073H15.6559V20.439H15.4506V20.3707H15.314V20.3024H15.1774V20.2341H14.9721V20.1658H14.8355V20.0975H14.6989V20.0292H14.5623V19.9609H14.494V19.8926H14.3574V19.8243H14.2208V19.756H14.0842V19.6877H14.0159V19.6194H13.8793V19.5511H13.811V19.4828H13.6744V19.4145H13.6061V19.3462H13.5378V19.2779H13.4012V19.2096H13.3329V19.1413H13.2646V19.073H13.1963V19.0047H13.0597V18.9364H12.9914V18.8681H12.9231V18.7998H12.8548V18.7315H12.7182V18.6632H12.6499V18.5949H12.5133V18.5266H12.445V18.4583H12.3084V18.39H12.2401V18.3217H12.1035V18.2534H11.9669V18.1851H11.8303V18.1168H11.6937V18.0485H11.5571V17.9802H11.3518V17.9119H11.2152V17.8436H11.0099V17.7753H10.8046V17.707H10.5309V17.6387H10.2573V17.5704H9.84708V17.5021H1.16022V16.7496H1.16108ZM21.4764 16.9549H25.5803V17.0232H25.9223V17.0915H26.1276V17.1598H26.2642V17.2281H26.4695V17.2964H26.6061V17.3647H26.6744V17.433H26.811V17.5013H26.8793V17.5696H27.0159V17.6379H27.0842V17.7062H27.1525V17.7745H27.2208V17.8428H27.2891V17.9111H27.3574V17.9794H27.4257V18.0477H27.494V18.116H27.5623V18.2526H27.6306V18.3209H27.6989V18.3892H27.7672V18.5258H27.8355V18.6624H27.9038V18.799H27.9721V18.9356H28.0404V19.1409H28.1087V19.4145H28.177V19.8247H28.2453V26.9386H28.177V27.1439H28.1087V27.2122H28.0404V27.2805H27.9721V27.3488H27.7668V27.4171H23.1838V27.3488H23.0473V27.2805H22.979V27.2122H22.9107V27.1439H22.8424V27.0073H22.7741V19.5515H22.7058V19.1413H22.6375V18.8677H22.5692V18.6624H22.5009V18.5258H22.4326V18.3204H22.3643V18.1838H22.296V18.0473H22.2277V17.9107H22.1594V17.8424H22.0911V17.7058H22.0228V17.6375H21.9545V17.5009H21.8862V17.4326H21.8179V17.3643H21.7496V17.296H21.6813V17.1594H21.613V17.0911H21.5447V17.0228H21.4764V16.9545V16.9549ZM11.695 6.55799H11.7633V6.21607H11.8316V6.01074H11.8999V5.80541H11.9682V5.66881H12.0365V5.53222H12.1048V5.46392H12.1731V5.32732H12.2414V5.25902H12.3097V5.19072H12.378V5.05412H12.4463V4.98583H12.5146V4.91753H12.5829V4.84923H12.6512V4.78093H12.7878V4.71263H12.8561V4.64433H12.9244V4.57603H13.061V4.50773H13.1293V4.43943H13.2659V4.37113H13.4025V4.30284H13.6078V4.23454H13.8131V4.16624H14.1551V4.09794H14.9759V4.16624H15.3179V4.23454H15.5915V4.30284H15.7281V4.37113H15.8647V4.43943H16.0013V4.50773H16.1379V4.57603H16.2062V4.64433H16.3428V4.71263H16.4111V4.78093H16.4794V4.84923H16.5477V4.91753H16.616V4.98583H16.6843V5.05412H16.7526V5.12242H16.8209V5.19072H16.8892V5.25902H16.9575V5.39562H17.0258V5.46392H17.0941V5.60052H17.1624V5.73711H17.2307V5.87371H17.299V6.07904H17.3673V6.35266H17.4356V6.76289H17.5039V6.96821H11.6899V6.55799H11.695ZM6.63316 2.38574H6.35954V2.45404H6.22294V2.52234H6.08634V2.59064H6.01804V2.65893H5.88144V2.72723H5.81314V2.79553H5.74485V2.86383H5.67655V2.93213H5.60825V3.06873H5.53995V3.13703H5.47165V3.27363H5.40335V3.41022H5.33505V3.61555H5.26675V4.0945H5.19845V14.5597H4.10395V3.68385H4.17225V3.34192H4.24055V3.1366H4.30885V2.93127H4.37715V2.79467H4.44545V2.65808H4.51375V2.52148H4.58204V2.45318H4.65034V2.31658H4.71864V2.24828H4.78694V2.17998H4.85524V2.11168H4.92354V2.04339H4.99184V1.97509H5.06014V1.90679H5.12844V1.83849H5.19673V1.77019H5.26503V1.70189H5.40163V1.63359H5.53823V1.56529H5.60653V1.49699H5.74313V1.42869H5.87972V1.3604H6.08505V1.2921H6.35868V1.2238H6.83763V1.1555H10.326V1.2238H10.805V1.2921H11.0103V1.3604H11.2156V1.42869H11.3522V1.49699H11.4888V1.56529H11.6254V1.63359H11.762V1.70189H11.8303V1.77019H11.8986V1.83849H12.0352V1.90679H12.1035V1.97509H12.1718V2.04339H12.2401V2.11168H12.3084V2.17998H12.3767V2.24828H12.445V2.31658H12.5133V2.38488H12.5816V2.45318H12.6499V2.52148H12.7182V2.58978H12.7865V2.65808H12.8548V2.72637H12.9231V2.79467H12.9914V2.86297H13.0597V2.93127H13.128V2.99957H13.1963V3.06787H13.2646V3.13617H13.128V3.20447H12.9227V3.27277H12.7861V3.34107H12.6495V3.40936H12.5129V3.47766H12.4446V3.54596H12.308V3.61426H12.1027V3.54596H12.0344V3.47766H11.9661V3.40936H11.8978V3.34107H11.8295V3.27277H11.7612V3.20447H11.6929V3.13617H11.6246V3.06787H11.5563V2.99957H11.488V2.93127H11.4197V2.86297H11.3514V2.79467H11.2831V2.72637H11.2148V2.65808H11.1465V2.58978H11.0099V2.52148H10.8733V2.45318H10.7367V2.38488H10.5314V2.31658H6.6323V2.38488L6.63316 2.38574ZM6.35954 0.0601375H6.01761V0.128436H5.74399V0.196735H5.60739V0.265034H5.40206V0.333333H5.26546V0.401632H5.12887V0.469931H4.99227V0.53823H4.85567V0.606529H4.78737V0.674828H4.65077V0.743127H4.58247V0.811426H4.51417V0.879725H4.37758V0.948024H4.30928V1.01632H4.24098V1.08462H4.17268V1.15292H4.10438V1.22122H4.03608V1.28952H3.96778V1.35782H3.89948V1.42612H3.83119V1.49442H3.76289V1.63101H3.69459V1.69931H3.62629V1.76761H3.55799V1.90421H3.48969V2.04081H3.42139V2.10911H3.35309V2.31443H3.28479V2.45103H3.21649V2.58763H3.1482V2.79296H3.0799V2.99828H3.0116V3.27191H2.9433V3.81916H2.875V14.558H1.98582V14.6263H1.6439V14.6946H1.43857V14.7629H1.30198V14.8312H1.16538V14.8995H1.09708V14.9678H0.960481V15.0361H0.892182V15.1044H0.823883V15.1727H0.755584V15.241H0.618986V15.3776H0.550687V15.4459H0.482388V15.5142H0.414089V15.5825H0.34579V15.7191H0.277491V15.8557H0.209192V15.9923H0.140893V16.1976H0.0725945V16.4029H0.00429553V17.8393H0.0725945V18.0447H0.140893V18.113H0.209192V18.2496H0.277491V18.3179H0.34579V18.3862H0.414089V18.4545H0.550687V18.5228H0.618986V18.5911H0.824313V18.6594H1.71349V24.3368H1.78179V25.0206H1.85009V25.4308H1.91838V25.7045H1.98668V25.9781H2.05498V26.1834H2.12328V26.3887H2.19158V26.5941H2.25988V26.7994H2.32818V26.936H2.39648V27.0726H2.46478V27.2092H2.53308V27.3458H2.60137V27.4824H2.66967V27.619H2.73797V27.7556H2.80627V27.8239H2.87457V27.9605H2.94287V28.0971H3.01117V28.1654H3.07947V28.302H3.14777V28.3703H3.21607V28.4386H3.28436V28.5752H3.35266V28.6435H3.42096V28.7118H3.48926V28.7801H3.55756V28.8484H3.62586V28.985H3.69416V29.0533H3.76246V29.1216H3.83076V29.1899H3.89905V29.2582H3.96735V29.3265H4.03565V29.3948H4.10395V29.4631H4.17225V29.5314H4.24055V29.5997H4.30885V29.668H4.44545V29.7363H4.51375V29.8046H4.58204V29.8729H4.65034V29.9412H4.78694V30.0095H4.85524V30.0777H4.92354V30.146H5.06014V30.2143H5.12844V30.2826H5.19673V31.4454H4.64948V31.5137H4.17053V31.582H3.96521V31.6503H3.82861V31.7186H3.76031V31.7869H3.62371V31.8552H3.55541V31.9235H3.48711V31.9918H3.41881V32.0601H3.35052V32.1284H3.28222V32.1967H3.21392V32.265H3.14562V32.4016H3.07732V32.5382H3.00902V32.7436H2.94072V33.0855H2.87242V33.8381H0.341495V33.9064H0.204897V33.9747H0.136598V34.043H0.068299V34.1796H0V34.6585H0.068299V34.7951H0.136598V34.8634H0.204897V34.9317H0.341495V35H34.6787V34.9317H34.8153V34.8634H34.8836V34.7951H34.9519V34.6585H35.0202V34.1796H34.9519V34.043H34.8836V33.9747H34.8153V33.9064H34.6787V33.8381H32.1478V33.0855H32.0795V32.7436H32.0112V32.5382H31.9429V32.4016H31.8746V32.265H31.8063V32.1967H31.738V32.1284H31.6697V32.0601H31.6014V31.9918H31.5331V31.9235H31.4648V31.8552H31.3965V31.7869H31.2599V31.7186H31.1916V31.6503H31.055V31.582H30.8497V31.5137H30.3707V31.4454H29.8235V30.2826H29.8918V30.2143H29.9601V30.146H30.0966V30.0777H30.1649V30.0095H30.2332V29.9412H30.3698V29.8729H30.4381V29.8046H30.5064V29.7363H30.5747V29.668H30.7113V29.5997H30.7796V29.5314H30.8479V29.4631H30.9162V29.3948H30.9845V29.3265H31.0528V29.2582H31.1211V29.1899H31.1894V29.1216H31.2577V29.0533H31.326V28.985H31.3943V28.8484H31.4626V28.7801H31.5309V28.7118H31.5992V28.6435H31.6675V28.5752H31.7358V28.4386H31.8041V28.3703H31.8724V28.302H31.9407V28.1654H32.009V28.0971H32.0773V27.9605H32.1456V27.8239H32.2139V27.7556H32.2822V27.619H32.3505V27.4824H32.4188V27.3458H32.4871V27.2092H32.5554V27.0726H32.6237V26.936H32.692V26.7994H32.7603V26.5941H32.8286V26.3887H32.8969V26.1834H32.9652V25.9781H33.0335V25.7045H33.1018V25.4308H33.1701V25.0206H33.2384V24.3368H33.3067V22.2165H33.9222V22.1482H34.2642V22.0799H34.4008V22.0116H34.5374V21.9433H34.6057V21.875H34.674V21.8067H34.7423V21.7384H34.8106V21.6701H34.8789V21.5335H34.9472V21.3282H35.0155V19.8918H34.9472V19.6864H34.8789V19.4811H34.8106V19.3445H34.7423V19.2079H34.674V19.1396H34.6057V19.003H34.5374V18.9347H34.4691V18.8664H34.4008V18.7981H34.3325V18.7298H34.2642V18.6615H34.1959V18.5932H34.1276V18.5249H34.0593V18.4566H33.9227V18.3883H33.7861V18.32H33.6495V18.2517H33.5129V18.1834H33.3076V18.1151H32.9656V18.0468H28.8617V17.9102H28.7934V17.8419H28.7251V17.7053H28.6568V17.637H28.5885V17.5004H28.5202V17.4321H28.4519V17.3638H28.3836V17.2272H28.3153V17.1589H28.247V17.0906H28.1787V17.0223H28.1104V16.954H28.0421V16.8857H27.9738V16.8174H27.9055V16.7491H27.7689V16.6808H27.7006V16.6125H27.6323V16.5442H27.4957V16.4759H27.4274V16.4076H27.2908V16.3393H27.2225V16.271H27.0859V16.2027H26.9493V16.1345H26.8127V16.0662H26.6074V15.9979H26.4708V15.9296H26.1972V15.8613H25.9235V15.793H25.5133V15.7247H17.8522V15.793H17.442V15.8613H17.1684V15.9296H16.9631V15.9979H16.7577V16.0662H16.6211V16.1345H16.4845V16.2027H16.3479V16.271H16.2113V16.3393H16.0747V16.4076H16.0064V16.4759H15.8698V16.5442H15.8015V16.6125H15.7332V16.6808H15.5966V16.7491H15.5283V16.8174H15.4601V16.8857H15.3918V16.954H15.1864V16.8857H15.1181V16.8174H15.0498V16.7491H14.9132V16.6808H14.8449V16.6125H14.7766V16.5442H14.7083V16.4759H14.5717V16.4076H14.5034V16.3393H14.4351V16.271H14.2985V16.2027H14.2302V16.1345H14.0936V16.0662H14.0253V15.9979H13.8887V15.9296H13.7521V15.8613H13.6838V15.793H13.5473V15.7247H13.4107V15.6564H13.2741V15.5881H13.1375V15.5198H13.0009V15.4515H12.8643V15.3832H12.7277V15.3149H12.5223V15.2466H12.3857V15.1783H12.1804V15.11H11.9751V15.0417H11.7698V14.9734H11.5644V14.9051H11.2908V14.8368H11.0172V14.7685H10.6753V14.7002H10.265V14.6319H9.71778V14.5636H6.43471V3.96134H6.50301V3.75601H6.57131V3.68772H6.6396V3.61942H6.7079V3.55112H10.4016V3.61942H10.4699V3.68772H10.5382V3.75601H10.6065V3.82431H10.6748V3.89261H10.7431V3.96091H10.8114V4.02921H10.8797V4.09751H10.948V4.16581H11.0163V4.23411H11.0846V4.30241H11.1529V4.3707H11.2212V4.439H11.2895V4.64433H11.2212V4.71263H11.1529V4.84923H11.0846V4.91753H11.0163V5.05412H10.948V5.19072H10.8797V5.32732H10.8114V5.53265H10.7431V5.66924H10.6748V5.94287H10.6065V6.2165H10.5382V6.69545H10.4699V7.1744H10.5382V7.44802H10.6065V7.58462H10.6748V7.65292H10.7431V7.78952H10.8114V7.85782H10.8797V7.92612H11.0163V7.99442H11.0846V8.06271H11.2212V8.13101H11.4948V8.19931H17.7195V8.13101H17.9248V8.06271H18.0614V7.99442H18.198V7.92612H18.2663V7.85782H18.3346V7.78952H18.4029V7.72122H18.4712V7.65292H18.5395V7.51632H18.6078V7.37973H18.6761V6.35352H18.6078V6.0116H18.5395V5.80627H18.4712V5.60094H18.4029V5.46435H18.3346V5.25902H18.2663V5.12242H18.198V4.98583H18.1297V4.91753H18.0614V4.78093H17.9931V4.71263H17.9248V4.57603H17.8565V4.50773H17.7882V4.43943H17.7199V4.30284H17.6516V4.23454H17.5833V4.16624H17.515V4.09794H17.4467V4.02964H17.3784V3.96134H17.3101V3.89304H17.1735V3.82474H17.1052V3.75644H17.0369V3.68814H16.9686V3.61985H16.832V3.55155H16.7637V3.48325H16.6271V3.41495H16.4905V3.34665H16.354V3.27835H16.2174V3.21005H16.0808V3.14175H15.8754V3.07345H15.6701V3.00516H15.3282V2.93686H14.7809V2.86856H14.7126V2.80026H14.6443V2.73196H14.576V2.66366H14.5077V2.59536H14.4394V2.52706H14.3711V2.45876H14.3028V2.39046H14.2345V2.32217H14.1662V2.25387H14.0979V2.18557H14.0296V2.11727H13.9613V2.04897H13.893V1.98067H13.8247V1.91237H13.7564V1.84407H13.6881V1.77577H13.6198V1.70747H13.5515V1.63918H13.4832V1.57088H13.4149V1.50258H13.3466V1.43428H13.2783V1.36598H13.2101V1.29768H13.1418V1.22938H13.0735V1.16108H13.0052V1.09278H12.8686V1.02448H12.8003V0.956186H12.732V0.887887H12.6637V0.819588H12.5954V0.751289H12.4588V0.68299H12.3905V0.614691H12.2539V0.546392H12.1856V0.478093H12.049V0.409794H11.9124V0.341495H11.7758V0.273196H11.5704V0.204897H11.3651V0.136598H11.0915V0.068299H10.8179V0H6.37199V0.068299L6.35954 0.0601375Z" fill="#FB9300"/>
<path fill-rule="evenodd" clip-rule="evenodd" d="M4.51306 23.3843H4.30773V23.4531H4.23943V23.5214H4.17113V23.658H4.1024V23.8633H4.0341V24.1369H4.1024V24.8208H4.17113V25.1631H4.23943V25.368H4.30773V25.5733H4.37603V25.7787H4.44433V25.9836H4.51306V26.1206H4.58135V26.2572H4.64965V26.3942H4.71795V26.5308H4.78668V26.6678H4.85498V26.7361H4.92328V26.8727H4.99158V26.9415H5.06031V27.0781H5.12861V27.1464H5.1969V27.2151H5.2652V27.2834H5.33393V27.3517H5.40223V27.4887H5.47053V27.557H5.53883V27.6253H5.60713V27.6936H5.67586V27.7623H5.74415V27.8306H5.81245V27.8989H5.94948V27.9672H6.01778V28.0355H6.08608V28.1043H6.15438V28.1726H6.29141V28.2409H6.3597V28.3092H6.49673V28.3779H6.56503V28.4462H6.70163V28.5145H6.83866V28.5828H6.97525V28.6515H7.11228V28.7198H7.24888V28.7881H7.38591V28.8564H7.5908V28.9251H7.79613V28.9934H8.00146V29.0617H8.34338V29.13H8.75361V29.1988H9.50618V29.13H9.64321V29.0617H9.77981V28.9251H9.84811V28.8564H9.91683V28.3092H9.84811V28.2409H9.77981V28.1726H9.71151V28.1043H9.64321V28.0355H9.43788V27.9672H8.68531V27.8989H8.41168V27.8306H8.13806V27.7623H7.93316V27.6936H7.72783V27.6253H7.5908V27.557H7.45421V27.4887H7.31718V27.42H7.24888V27.3517H7.11228V27.2834H6.97525V27.2151H6.90696V27.1464H6.83866V27.0781H6.70163V27.0098H6.63333V26.9415H6.56503V26.8727H6.49673V26.8044H6.428V26.7361H6.3597V26.6678H6.29141V26.5995H6.22311V26.4625H6.15438V26.3942H6.08608V26.3259H6.01778V26.1889H5.94948V26.1206H5.88075V25.9836H5.81245V25.9153H5.74415V25.7787H5.67586V25.5733H5.60713V25.4363H5.53883V25.2997H5.47053V25.0261H5.40223V24.8208H5.33393V24.4105H5.2652V23.7267H5.1969V23.5897H5.12861V23.5214H5.06031V23.4531H4.99158V23.3843H4.85498V23.316H4.51306V23.3843Z" fill="#FB9300"/>
<path fill-rule="evenodd" clip-rule="evenodd" d="M12.1053 9.3626H11.9687V9.4309H11.8316V9.4992H11.7633V9.63622H11.695V9.77282H11.6263V9.97815H11.558V10.1147H11.4897V10.3201H11.4214V10.4567H11.3527V10.662H11.2844V10.799H11.2161V11.0039H11.1478V11.1409H11.0795V11.3458H11.0108V11.4829H10.9425V11.6882H10.8742V11.8248H10.8059V12.0301H10.7371V12.1667H10.6688V12.372H10.6005V12.5091H10.5322V12.714H10.4635V12.9876H10.5322V13.1246H10.6005V13.1929H10.6688V13.2612H10.7371V13.3295H10.8059V13.3982H11.0108V13.4665H11.1478V13.3982H11.3527V13.3295H11.4897V13.2612H11.558V13.1929H11.6263V13.0559H11.695V12.851H11.7633V12.714H11.8316V12.5091H11.8999V12.372H11.9687V12.1667H12.037V12.0301H12.1053V11.8248H12.1736V11.6882H12.2423V11.4829H12.3106V11.3458H12.3789V11.1409H12.4472V11.0039H12.5159V10.799H12.5842V10.662H12.6525V10.4567H12.7208V10.3201H12.7891V10.1147H12.8578V9.70452H12.7891V9.56749H12.7208V9.4992H12.6525V9.4309H12.5842V9.3626H12.3789V9.29387H12.1053V9.3626Z" fill="#FB9300"/>
<path fill-rule="evenodd" clip-rule="evenodd" d="M16.7564 9.3626H16.6198V9.4309H16.5515V9.4992H16.4828V9.56749H16.4145V9.63622H16.3462V10.183H16.4145V10.3201H16.4828V10.5254H16.5515V10.662H16.6198V10.8673H16.6881V11.0039H16.7564V11.2092H16.8247V11.3458H16.8935V11.5512H16.9618V11.6882H17.0301V11.8931H17.0984V12.0301H17.1671V12.2354H17.2354V12.372H17.3037V12.5774H17.372V12.714H17.4407V12.9193H17.509V13.0559H17.5773V13.1929H17.6456V13.2612H17.7143V13.3295H17.8509V13.3982H18.0563V13.4665H18.1246V13.3982H18.3982V13.3295H18.4665V13.2612H18.5348V13.1929H18.6035V13.0559H18.6718V12.5774H18.6035V12.372H18.5348V12.2354H18.4665V12.0301H18.3982V11.8931H18.3299V11.6882H18.2616V11.5512H18.1929V11.3458H18.1246V11.2092H18.0563V11.0039H17.988V10.8673H17.9192V10.662H17.8509V10.5254H17.7826V10.3201H17.7143V10.183H17.6456V9.97815H17.5773V9.84112H17.509V9.63622H17.4407V9.56749H17.372V9.4992H17.3037V9.4309H17.2354V9.3626H17.0984V9.29387H16.7564V9.3626Z" fill="#FB9300"/>
<path fill-rule="evenodd" clip-rule="evenodd" d="M14.4309 9.3626H14.2943V9.4309H14.2256V9.4992H14.1573V9.56749H14.089V9.63622H14.0207V9.90985H13.9524V12.851H14.0207V13.1246H14.089V13.1929H14.1573V13.2612H14.2256V13.3295H14.2943V13.3982H14.568V13.4665H14.6363V13.3982H14.8416V13.3295H14.9782V13.2612H15.0465V13.1929H15.1152V13.0559H15.1835V9.70452H15.1152V9.56749H15.0465V9.4992H14.9782V9.4309H14.9099V9.3626H14.7046V9.29387H14.4309V9.3626Z" fill="#FB9300"/>
</svg>
