<svg width="38" height="35" viewBox="0 0 38 35" fill="none" xmlns="http://www.w3.org/2000/svg">
<path fill-rule="evenodd" clip-rule="evenodd" d="M36.2551 32.4883H36.1812V32.636H36.1074V32.7837H36.0335V32.8575H35.9597V32.9314H35.8858V33.0052H35.812V33.0791H35.7381V33.1529H35.6643V33.2268H35.5166V33.3006H35.3689V33.3745H35.1475V33.4483H34.4091V33.3745H34.1876V33.3006H34.0399V33.2268H33.966V33.1529H33.8183V33.0791H33.7445V33.0052H33.6706V32.9314H33.5968V32.7837H33.5229V32.636H33.4491V32.4883H33.3752V32.2668H33.3014V31.0854H36.3287V32.1192H36.2549V32.4884L36.2551 32.4883ZM1.47784 31.0853H4.50513V32.2667H4.43122V32.4881H4.35743V32.6358H4.28352V32.7835H4.20973V32.8573H4.13582V33.005H4.06203V33.0789H3.98812V33.1527H3.84042V33.2266H3.76663V33.3004H3.61893V33.3743H3.39745V33.4481H2.65907V33.3743H2.43758V33.3004H2.28988V33.2266H2.14218V33.1527H2.06827V33.0789H1.99448V33.005H1.92057V32.9312H1.84678V32.8573H1.77287V32.7835H1.69909V32.6358H1.62518V32.4881H1.55139V32.119H1.47748V31.0852L1.47784 31.0853ZM1.47784 22.5202H1.55175V21.8557H1.62554V21.4865H1.69945V21.1912H1.77324V20.9697H1.84715V20.7482H1.92094V20.5267H1.99485V20.3052H2.06864V20.1575H2.14255V20.0098H2.21634V19.8621H2.29025V19.7144H2.36403V19.6406H2.43794V19.4929H2.51173V19.3452H2.58564V19.2713H2.65943V19.1236H2.73334V19.0498H2.80713V18.9759H2.88104V18.8282H2.95483V18.7544H3.02874V18.6805H3.10253V18.6067H3.17644V18.459H3.25023V18.3851H3.32414V18.3113H3.39793V18.2374H3.47184V18.1636H3.54563V18.0897H3.61954V18.0159H3.76724V17.942H3.84103V17.8682H3.91494V17.7943H3.98873V17.7205H4.06264V17.6466H4.21034V17.5728H4.28412V17.4989H4.35803V17.4251H4.50573V17.3512H4.65343V17.2774H4.72722V17.2035H4.87492V17.1297H5.02262V17.0558H5.17032V16.982H5.31802V16.9081H5.46572V16.8343H5.61342V16.7604H5.83491V16.6866H5.98261V16.6127H6.278V16.5389H6.49949V16.465H6.86868V16.3912H7.31166V16.3173H30.4964V16.3912H30.9394V16.465H31.3086V16.5389H31.5301V16.6127H31.8255V16.6866H31.9732V16.7604H32.1947V16.8343H32.3424V16.9081H32.4901V16.982H32.6378V17.0558H32.7855V17.1297H32.9332V17.2035H33.0809V17.2774H33.1548V17.3512H33.3025V17.4251H33.4502V17.4989H33.524V17.5728H33.5979V17.6466H33.7456V17.7205H33.8194V17.7943H33.8933V17.8682H33.9671V17.942H34.041V18.0159H34.1887V18.0897H34.2625V18.1636H34.3364V18.2374H34.4102V18.3113H34.4841V18.3851H34.5579V18.459H34.6318V18.6067H34.7056V18.6805H34.7795V18.7544H34.8533V18.8282H34.9272V18.9759H35.001V19.0498H35.0749V19.1236H35.1487V19.2713H35.2226V19.3452H35.2964V19.4929H35.3703V19.6406H35.4441V19.7144H35.518V19.8621H35.5918V20.0098H35.6657V20.1575H35.7395V20.3052H35.8134V20.5267H35.8872V20.7482H35.9611V20.9697H36.0349V21.1912H36.1088V21.4865H36.1826V21.8557H36.2565V22.5202H36.3303V25.1045H28.725V25.1783H28.5773V25.2522H28.4296V25.326H28.3557V25.3999H28.2819V25.5476H28.208V25.7691H28.1342V25.9168H28.208V26.2122H28.2819V26.3599H28.3557V26.4338H28.4296V26.5076H28.5773V26.5815H28.7988V26.6553H36.3301V29.535H1.47905V26.6553H21.7103V26.5815H21.858V26.5076H22.0057V26.4338H22.0796V26.3599H22.1534V26.2861H22.2273V26.0646H22.3011V25.6216H22.2273V25.4739H22.1534V25.4002H22.0796V25.3262H22.0057V25.2525H21.9319V25.1785H21.7105V25.1048H1.47917V22.5204L1.47784 22.5202ZM19.6417 12.5523H19.7156V12.1831H19.7894V11.9616H19.8633V11.8139H19.9371V11.6662H20.011V11.5185H20.0848V11.4446H20.1587V11.2969H20.2325V11.2231H20.3064V11.1492H20.3802V11.0754H20.4541V11.0015H20.5279V10.9277H20.6756V10.8538H20.7495V10.78H20.8972V10.7061H20.971V10.6323H21.1187V10.5584H21.3402V10.4846H21.6356V10.4107H29.0193V10.4846H29.3147V10.5584H29.4624V10.6323H29.6839V10.7061H29.7578V10.78H29.9055V10.8538H29.9793V10.9277H30.127V11.0015H30.2009V11.0754H30.2747V11.1492H30.3486V11.2231H30.4224V11.3708H30.4963V11.4446H30.5701V11.5185H30.644V11.6662H30.7178V11.8139H30.7917V12.0354H30.8655V12.2569H30.9394V12.7737H31.0132V14.8412H30.3487V14.7674H19.6423V12.5523H19.6417ZM7.45863 14.8412H6.79404V12.7737H6.86795V12.2569H6.94174V12.0354H7.01565V11.8139H7.08944V11.6662H7.16335V11.5185H7.23714V11.4446H7.31105V11.3708H7.38484V11.2231H7.45875V11.1492H7.53254V11.0754H7.60645V11.0015H7.68024V10.9277H7.82794V10.8538H7.90185V10.78H8.04955V10.7061H8.12334V10.6323H8.34483V10.5584H8.49253V10.4846H8.78792V10.4107H16.1717V10.4846H16.4671V10.5584H16.6886V10.6323H16.8363V10.7061H16.9102V10.78H17.0579V10.8538H17.1317V10.9277H17.2794V11.0015H17.3533V11.0754H17.4271V11.1492H17.501V11.2231H17.5748V11.2969H17.6487V11.4446H17.7225V11.5185H17.7964V11.6662H17.8702V11.8139H17.9441V11.9616H18.0179V12.1831H18.0918V12.626H18.1656V14.7674H7.45924V14.8412H7.45863ZM8.86147 8.93417H8.41849V9.00808H8.1231V9.08187H7.90161V9.15578H7.75391V9.22957H7.60621V9.30348H7.45851V9.37727H7.31081V9.45118H7.16311V9.52497H7.0892V9.59888H6.9415V9.67267H6.86771V9.74658H6.7938V9.82037H6.6461V9.89428H6.57231V9.96807H6.4984V10.042H6.42462V10.1158H6.3507V10.1897H6.27692V10.2635H6.20301V10.4112H6.12922V10.4851H6.05531V10.5589H5.98152V10.7066H5.90761V10.8543H5.83382V10.9282H5.75991V11.0759H5.68612V11.2236H5.61221V11.4451H5.53842V11.5928H5.46451V11.8882H5.39072V12.2573H5.31681V15.2846H5.24302V15.3585H5.02153V15.4323H4.87383V15.5062H4.72613V15.58H4.57843V15.6539H4.43074V15.7277H4.28304V15.8016H4.13534V15.8754H3.98764V15.9493H3.91385V16.0231H3.76615V4.72613H3.83994V4.35695H3.91385V4.13546H3.98764V3.91397H4.06155V3.76627H4.13534V3.61857H4.20925V3.47087H4.28304V3.32317H4.35695V3.17547H4.43074V3.10168H4.50465V3.02777H4.57843V2.88007H4.65234V2.80629H4.72613V2.73238H4.80004V2.65859H4.87383V2.58468H4.94774V2.51089H5.02153V2.43698H5.09544V2.36319H5.24314V2.28928H5.31693V2.21549H5.39084V2.14158H5.53854V2.06779H5.68624V1.99388H5.76003V1.92009H5.98152V1.84618H6.12922V1.77239H6.3507V1.69848H6.57219V1.62469H6.94138V1.55078H30.7168V1.62469H31.086V1.69848H31.3075V1.77239H31.529V1.84618H31.7505V1.92009H31.8982V1.99388H31.9721V2.06779H32.1198V2.14158H32.2675V2.21549H32.3413V2.28928H32.4152V2.36319H32.5629V2.43698H32.6367V2.51089H32.7106V2.58468H32.7844V2.65859H32.8583V2.73238H32.9321V2.80629H33.006V2.88007H33.0798V3.02777H33.1537V3.10168H33.2275V3.17547H33.3014V3.32317H33.3752V3.47087H33.4491V3.61857H33.5229V3.76627H33.5968V3.91397H33.6706V4.13546H33.7445V4.35695H33.8183V4.79992H33.8922V15.9493H33.8183V15.8754H33.6706V15.8016H33.5229V15.7277H33.3752V15.6539H33.2275V15.58H33.0798V15.5062H32.9321V15.4323H32.7844V15.3585H32.5629V15.2846H32.489V12.2573H32.4152V11.8882H32.3413V11.5928H32.2675V11.4451H32.1936V11.2236H32.1198V11.0759H32.0459V10.9282H31.9721V10.8543H31.8982V10.7066H31.8244V10.5589H31.7505V10.4851H31.6767V10.4112H31.6028V10.2635H31.529V10.1897H31.4551V10.1158H31.3813V10.042H31.3074V9.96807H31.2336V9.89428H31.1597V9.82037H31.012V9.74658H30.9382V9.67267H30.8643V9.59888H30.7166V9.52497H30.6428V9.45118H30.4951V9.37727H30.3474V9.30348H30.1997V9.22957H30.052V9.15578H29.9043V9.08187H29.6828V9.00808H29.3874V8.93417H28.9445V8.86038H21.7084V8.93417H21.2654V9.00808H20.97V9.08187H20.7485V9.15578H20.6008V9.22957H20.3794V9.30348H20.2317V9.37727H20.1579V9.45118H20.0102V9.52497H19.8625V9.59888H19.7886V9.67267H19.7148V9.74658H19.5671V9.82037H19.4932V9.89428H19.4194V9.96807H19.3455V10.042H19.2717V10.1158H19.1978V10.1897H19.124V10.2635H19.0501V10.4112H18.9763V10.4851H18.8286V10.4112H18.7547V10.2635H18.6809V10.1897H18.607V10.1158H18.5332V10.042H18.4593V9.96807H18.3855V9.89428H18.3116V9.82037H18.2378V9.74658H18.0901V9.67267H18.0162V9.59888H17.9424V9.52497H17.7947V9.45118H17.647V9.37727H17.5731V9.30348H17.4254V9.22957H17.2039V9.15578H17.0562V9.08187H16.8347V9.00808H16.5393V8.93417H16.0963V8.86038H8.86026V8.93417H8.86147ZM7.08932 0.0736682H6.49865V0.147578H6.20325V0.221367H5.90785V0.295278H5.68636V0.369067H5.53866V0.442977H5.39096V0.516766H5.16947V0.590676H5.02177V0.664465H4.94799V0.738375H4.80029V0.812164H4.65259V0.886074H4.57868V0.959864H4.43098V1.03377H4.35719V1.10756H4.28328V1.18147H4.13558V1.25526H4.06179V1.32917H3.98788V1.40296H3.91409V1.47687H3.84018V1.55066H3.76639V1.62457H3.69248V1.69836H3.61869V1.77227H3.54478V1.84606H3.47099V1.91997H3.39708V2.06767H3.32329V2.14146H3.24938V2.21537H3.17559V2.36307H3.10168V2.43686H3.02789V2.58456H2.95398V2.73225H2.8802V2.80616H2.80629V2.95386H2.7325V3.17535H2.65859V3.32305H2.5848V3.54454H2.51089V3.76603H2.4371V3.98752H2.36319V4.3567H2.2894V4.94738H2.21549V17.3521H2.1417V17.426H2.06779V17.5737H1.994V17.6475H1.92009V17.7214H1.8463V17.7952H1.77239V17.8691H1.6986V18.0168H1.62469V18.0906H1.5509V18.1645H1.47699V18.3122H1.4032V18.386H1.32929V18.5337H1.2555V18.6076H1.18159V18.7553H1.1078V18.903H1.03389V18.9768H0.960105V19.1244H0.886195V19.2721H0.812406V19.4198H0.738496V19.5675H0.664707V19.789H0.590797V19.9367H0.517008V20.1582H0.443098V20.3059H0.369309V20.6013H0.295398V20.8228H0.221609V21.1182H0.147699V21.4874H0.0739101V22.0043H0V32.563H0.0739101V32.8584H0.147699V33.0799H0.221609V33.2276H0.295398V33.3753H0.369309V33.523H0.443098V33.5968H0.517008V33.7445H0.590797V33.8184H0.664707V33.8922H0.738496V33.9661H0.812406V34.0399H0.886195V34.1138H0.960105V34.1876H1.03389V34.2615H1.1078V34.3353H1.18159V34.4092H1.32929V34.483H1.4032V34.5569H1.5509V34.6307H1.6986V34.7046H1.8463V34.7784H1.994V34.8523H2.2894V34.9261H2.73238V35H3.32305V34.9261H3.69224V34.8523H3.98764V34.7784H4.13534V34.7046H4.35682V34.6307H4.43061V34.5569H4.57831V34.483H4.72601V34.4092H4.79992V34.3353H4.87371V34.2615H5.02141V34.1876H5.09532V34.1138H5.16911V34.0399H5.24302V33.9661H5.31681V33.8184H5.39072V33.7445H5.46451V33.6707H5.53842V33.523H5.61221V33.3753H5.68612V33.2276H5.75991V33.0799H5.83382V32.8584H5.90761V32.6369H5.98152V32.0463H6.05531V31.0864H31.7506V32.0463H31.8245V32.6369H31.8983V32.8584H31.9722V33.0799H32.046V33.2276H32.1199V33.3753H32.1937V33.523H32.2676V33.6707H32.3414V33.7445H32.4153V33.8184H32.4891V33.9661H32.563V34.0399H32.6368V34.1138H32.7107V34.1876H32.7845V34.2615H32.9322V34.3353H33.0061V34.4092H33.0799V34.483H33.2276V34.5569H33.3015V34.6307H33.523V34.7046H33.6707V34.7784H33.8184V34.8523H34.1138V34.9261H34.483V35H35.0737V34.9261H35.5166V34.8523H35.812V34.7784H35.9597V34.7046H36.1074V34.6307H36.2551V34.5569H36.4028V34.483H36.4766V34.4092H36.6243V34.3353H36.6982V34.2615H36.772V34.1876H36.8459V34.1138H36.9197V34.0399H36.9936V33.9661H37.0674V33.8922H37.1413V33.8184H37.2151V33.7445H37.289V33.5968H37.3628V33.523H37.4367V33.3753H37.5105V33.2276H37.5844V33.0799H37.6582V32.8584H37.7321V32.563H37.8059V22.0043H37.7321V21.4874H37.6582V21.1182H37.5844V20.8228H37.5105V20.6013H37.4367V20.3798H37.3628V20.1583H37.289V19.9369H37.2151V19.7892H37.1413V19.5677H37.0674V19.42H36.9936V19.2723H36.9197V19.1246H36.8459V18.9769H36.772V18.9031H36.6982V18.7554H36.6243V18.6077H36.5505V18.5338H36.4766V18.3861H36.4028V18.3123H36.3289V18.1646H36.2551V18.0907H36.1812V18.0169H36.1074V17.8692H36.0335V17.7953H35.9597V17.7215H35.8858V17.6476H35.812V17.5738H35.7381V17.4261H35.6643V17.3522H35.5904V17.2784H35.5166V17.2045H35.4427V4.9475H35.3689V4.35682H35.295V3.98764H35.2213V3.76615H35.1473V3.54466H35.0736V3.32317H34.9996V3.17547H34.9258V3.02777H34.8519V2.88007H34.7782V2.73238H34.7042V2.58468H34.6305V2.43698H34.5565V2.36319H34.4828V2.21549H34.4088V2.14158H34.3351V2.06779H34.2611V1.99388H34.1874V1.84618H34.1134V1.77239H34.0397V1.69848H33.9657V1.62469H33.892V1.55078H33.818V1.47699H33.7443V1.40308H33.6703V1.32929H33.5966V1.25538H33.5226V1.18159H33.375V1.10768H33.3012V1.03389H33.2272V0.959985H33.0796V0.886195H33.0058V0.812285H32.8581V0.738496H32.7104V0.664586H32.6365V0.590797H32.4888V0.516887H32.2673V0.443098H32.1196V0.369188H31.8981V0.295398H31.7504V0.221488H31.455V0.147699H31.0858V0.0737891H30.5689V0H7.08872V0.0737891L7.08932 0.0736682Z" fill="#FB9300"/>
<path fill-rule="evenodd" clip-rule="evenodd" d="M25.031 25.1782H24.8834V25.252H24.7357V25.3259H24.6618V25.3997H24.588V25.5474H24.5141V25.7689H24.4403V25.9904H24.5141V26.2119H24.588V26.3596H24.6618V26.4335H24.7357V26.5073H24.8834V26.5812H25.1049V26.655H25.4002V26.5812H25.5479V26.5073H25.6956V26.4335H25.7694V26.3596H25.8433V26.2858H25.9171V26.0643H25.9909V25.6212H25.9171V25.4735H25.8433V25.3997H25.7694V25.3259H25.6956V25.252H25.6217V25.1782H25.4002V25.1045H25.031V25.1782Z" fill="#FB9300"/>
</svg>
