<svg width="31" height="30" viewBox="0 0 31 30" fill="none" xmlns="http://www.w3.org/2000/svg">
<path fill-rule="evenodd" clip-rule="evenodd" d="M29.148 13.0435L16.9039 0.799439C16.399 0.29453 15.6837 0 14.9684 0C14.2111 0 13.5379 0.29453 13.033 0.799439L0.78892 13.0435C-0.262973 14.1374 -0.262973 15.8626 0.78892 16.9565C1.29383 17.4614 1.92496 17.7139 2.64025 17.756C2.68233 17.756 2.68233 17.756 2.7244 17.756H3.22931V26.7602C3.22931 28.5273 4.65989 30 6.46914 30H11.2658C11.7707 30 12.1494 29.6213 12.1494 29.1164V22.0477C12.1494 21.2482 12.8226 20.575 13.622 20.575H16.4411C17.2405 20.575 17.9137 21.2482 17.9137 22.0477V29.1164C17.9137 29.6213 18.2924 30 18.7973 30H23.594C25.3611 30 26.8338 28.5694 26.8338 26.7602V17.756H27.2966C28.054 17.756 28.7272 17.4614 29.2321 16.9565C30.3261 15.8626 30.3261 14.1374 29.2321 13.0435H29.148Z" fill="#FB9300"/>
</svg>
