<svg width="31" height="30" viewBox="0 0 31 30" fill="none" xmlns="http://www.w3.org/2000/svg">
<path d="M29.1635 13.0435L16.914 0.793951C16.4036 0.283554 15.7231 0 14.9858 0C14.2486 0 13.5681 0.283554 13.0577 0.793951L0.808129 13.0435C-0.269376 14.121 -0.269376 15.879 0.808129 16.9565C1.31853 17.4669 1.94234 17.7505 2.62287 17.7505C2.62287 17.7505 2.67958 17.7505 2.7363 17.7505H3.24669V26.7675C3.24669 28.5255 4.72117 30 6.47921 30H11.2429C11.7533 30 12.1503 29.603 12.1503 29.0926V22.0038C12.1503 21.2098 12.8308 20.5293 13.6248 20.5293H16.4603C17.2543 20.5293 17.9348 21.2098 17.9348 22.0038V29.0926C17.9348 29.603 18.3318 30 18.8422 30H23.6059C25.3639 30 26.8384 28.5255 26.8384 26.7675V17.7505H27.2921C28.0293 17.7505 28.7098 17.4669 29.2202 16.9565C30.2977 15.879 30.2977 14.121 29.2202 13.0435H29.1635ZM27.9159 15.7089C27.7457 15.879 27.4622 15.9924 27.1786 15.9924H25.8743C25.3639 15.9924 24.9669 16.3894 24.9669 16.8998V26.7675C24.9669 27.5614 24.2864 28.242 23.4924 28.242H19.5794V22.0605C19.5794 20.3025 18.1049 18.828 16.3469 18.828H13.5113C11.7533 18.828 10.2788 20.3025 10.2788 22.0605V28.242H6.36579C5.57183 28.242 4.8913 27.5614 4.8913 26.7675V16.8998C4.8913 16.3894 4.49433 15.9924 3.98393 15.9924H2.67958C2.67958 15.9924 2.67958 15.9924 2.62287 15.9924C2.33932 15.9924 2.11248 15.879 1.94234 15.7089C1.54537 15.3119 1.54537 14.6881 1.94234 14.2911L14.1919 2.04159C14.362 1.87146 14.6456 1.75803 14.9291 1.75803C15.2127 1.75803 15.4395 1.87146 15.6664 2.04159L27.9159 14.2911C28.3129 14.6881 28.3129 15.3119 27.9159 15.7089Z" fill="#CACED4"/>
</svg>
