<svg width="136" height="136" viewBox="0 0 136 136" fill="none" xmlns="http://www.w3.org/2000/svg">
<path fill-rule="evenodd" clip-rule="evenodd" d="M96.3238 70.5114L101.023 76.8219L67.9995 121.163L34.9757 76.8219L39.6757 70.5114L67.9995 108.543L96.3238 70.5114Z" fill="white"/>
<path fill-rule="evenodd" clip-rule="evenodd" d="M67.9994 14.8373L101.023 59.1783L67.9994 103.519L34.9757 59.1783L67.9994 14.8373ZM53.3629 75.407H58.0715V61.9236H63.1226V75.407H67.8312V45.4441H63.1226V57.6433H58.0715V45.4441H53.3629V75.407ZM71.3407 75.407H76.0493V63.2079H78.2752C82.9838 63.2079 85.295 60.5968 85.295 55.803V52.8495C85.295 48.0557 82.9833 45.4447 78.2752 45.4447H71.3413V75.4076L71.3407 75.407ZM76.0493 58.9275V49.7245H78.2752C79.7736 49.7245 80.5869 50.4095 80.5869 52.5496V56.1024C80.5869 58.2425 79.7736 58.9275 78.2752 58.9275H76.0493Z" fill="white"/>
<path d="M68 133C103.899 133 133 103.899 133 68C133 32.1015 103.899 3 68 3C32.1015 3 3 32.1015 3 68C3 103.899 32.1015 133 68 133Z" stroke="white" stroke-width="5" stroke-miterlimit="2.61313"/>
</svg>
