<svg width="27" height="30" viewBox="0 0 27 30" fill="none" xmlns="http://www.w3.org/2000/svg">
<path d="M13.3718 14.4409C15.3526 14.4409 17.0779 13.738 18.4836 12.3323C19.8894 10.9265 20.5923 9.20128 20.5923 7.22045C20.5923 5.23962 19.8894 3.51438 18.4836 2.10863C17.0779 0.702876 15.3526 0 13.3718 0C11.391 0 9.66574 0.702876 8.25999 2.10863C6.85424 3.51438 6.15136 5.23962 6.15136 7.22045C6.15136 9.20128 6.85424 10.9265 8.25999 12.3323C9.66574 13.738 11.391 14.4409 13.3718 14.4409ZM26.0236 23.0671C25.9916 22.492 25.8958 21.853 25.768 21.1821C25.6402 20.5112 25.4804 19.8722 25.2887 19.2652C25.097 18.6581 24.8415 18.0511 24.49 17.476C24.1386 16.869 23.7552 16.3578 23.3079 15.9425C22.8287 15.4952 22.2855 15.1438 21.6146 14.8882C20.9437 14.6326 20.2408 14.5048 19.4421 14.5048C19.1226 14.5048 18.8351 14.6326 18.26 15.016C17.9086 15.2396 17.4932 15.5272 17.0459 15.8147C16.6625 16.0703 16.1194 16.2939 15.4485 16.5176C14.8095 16.7412 14.1705 16.8371 13.4996 16.8371C12.8606 16.8371 12.1897 16.7412 11.5507 16.5176C10.8798 16.2939 10.3686 16.0703 9.95328 15.8147C9.50599 15.5272 9.09066 15.2716 8.73922 15.016C8.16414 14.6326 7.8766 14.5048 7.55711 14.5048C6.79034 14.5048 6.05551 14.6326 5.38459 14.8882C4.71366 15.1438 4.13858 15.4952 3.6913 15.9425C3.24401 16.3578 2.86063 16.901 2.50919 17.476C2.1897 18.0511 1.93411 18.6581 1.71047 19.2652C1.51877 19.8403 1.35903 20.4792 1.23123 21.1821C1.10344 21.853 1.03954 22.492 0.975641 23.0671C0.943692 23.6422 0.911743 24.2492 0.911743 24.8243C0.911743 26.3898 1.42293 27.6677 2.38139 28.5942C3.33986 29.5208 4.64976 30 6.18331 30H20.6242C22.1897 30 23.4677 29.5208 24.4261 28.5942C25.4165 27.6677 25.8958 26.3898 25.8958 24.8243C25.8958 24.2173 25.8638 23.6102 25.8319 23.0351L26.0236 23.0671ZM23.4038 27.3482C22.7648 27.9553 21.9022 28.2428 20.8159 28.2428H6.375C5.25679 28.2428 4.42612 27.9553 3.78714 27.3482C3.14817 26.7412 2.86063 25.9425 2.86063 24.8562C2.86063 24.2812 2.89257 23.738 2.92452 23.1949C2.95647 22.6837 3.02037 22.1086 3.14817 21.5016C3.24401 20.8946 3.40376 20.3195 3.5635 19.8083C3.72325 19.3291 3.94689 18.8179 4.20248 18.3706C4.45807 17.9233 4.74561 17.5399 5.0651 17.2204C5.35264 16.9329 5.73602 16.7093 6.18331 16.5176C6.59864 16.3578 7.07788 16.262 7.55711 16.262C7.62101 16.2939 7.71686 16.3578 7.90855 16.4856C8.25999 16.7093 8.67532 16.9968 9.15456 17.2843C9.66574 17.6038 10.3367 17.9233 11.1354 18.1789C11.9661 18.4345 12.7967 18.5623 13.6274 18.5623C14.4581 18.5623 15.2887 18.4345 16.1194 18.1789C16.9181 17.9233 17.5891 17.6358 18.1002 17.2843C18.5795 16.9968 18.9629 16.7093 19.3463 16.4856C19.5379 16.3578 19.6338 16.2939 19.6977 16.262C20.2089 16.262 20.6562 16.3578 21.0715 16.5176C21.5188 16.7093 21.9022 16.9329 22.1897 17.2204C22.5092 17.5399 22.7967 17.9233 23.0523 18.3706C23.3079 18.8498 23.5316 19.3291 23.6913 19.8083C23.851 20.3195 23.9788 20.8946 24.1066 21.5016C24.2025 22.1086 24.2983 22.6837 24.3303 23.1949C24.3622 23.738 24.3942 24.2812 24.3942 24.8562C24.3942 25.9425 24.0747 26.7412 23.4677 27.3482H23.4038ZM9.50599 3.35463C10.5923 2.26837 11.8383 1.75719 13.3718 1.75719C14.9054 1.75719 16.1514 2.26837 17.2376 3.35463C18.3239 4.44089 18.8351 5.6869 18.8351 7.22045C18.8351 8.75399 18.3239 10 17.2376 11.0863C16.1514 12.1725 14.9054 12.6837 13.3718 12.6837C11.8383 12.6837 10.5923 12.1725 9.50599 11.0863C8.41973 10 7.90855 8.75399 7.90855 7.22045C7.90855 5.6869 8.41973 4.44089 9.50599 3.35463Z" fill="#CACED4"/>
</svg>
