<svg width="24" height="30" viewBox="0 0 24 30" fill="none" xmlns="http://www.w3.org/2000/svg">
<path fill-rule="evenodd" clip-rule="evenodd" d="M23.6997 24.7534L22.3544 7.86995C22.2872 6.79372 21.3455 5.91928 20.2692 5.91928H17.6459V5.78475C17.6459 2.55605 15.0226 0 11.8612 0C8.63247 0 6.07642 2.62332 6.07642 5.78475V5.91928H3.4531C2.37687 5.91928 1.43517 6.79372 1.3679 7.86995L0.0226096 24.7534C-0.11192 26.0987 0.358932 27.4439 1.30064 28.4529C2.24234 29.4619 3.52037 30 4.86566 30H18.924C20.2692 30 21.6145 29.4619 22.489 28.4529C23.4307 27.4439 23.9015 26.0987 23.767 24.7534H23.6997ZM15.7625 14.9327C15.4262 14.5964 14.8881 14.5964 14.5518 14.9327L10.6504 18.8341L9.17059 17.3543C8.83427 17.0179 8.29615 17.0179 7.95983 17.3543C7.62351 17.6906 7.62351 18.2287 7.95983 18.565L10.1123 20.7175C10.3141 20.9193 10.5159 20.9865 10.7177 20.9865C10.9195 20.9865 11.1885 20.9193 11.3231 20.7175L15.897 16.1435C16.2334 15.8072 16.2334 15.2691 15.897 14.9327H15.7625ZM7.75803 5.85202C7.75803 3.63229 9.57418 1.81614 11.7939 1.81614C14.0136 1.81614 15.8298 3.63229 15.8298 5.85202V5.98655H7.75803V5.85202V5.85202Z" fill="#FB9300"/>
</svg>
