<svg width="24" height="30" viewBox="0 0 24 30" fill="none" xmlns="http://www.w3.org/2000/svg">
<path d="M16.0044 14.9007C15.6468 14.543 15.0905 14.543 14.7726 14.9007L10.8389 18.8344L9.32893 17.3245C8.97132 16.9669 8.41502 16.9669 8.09714 17.3245C7.73953 17.6821 7.73953 18.2384 8.09714 18.5563L10.2428 20.702C10.4018 20.8609 10.6402 20.9404 10.8786 20.9404C11.117 20.9404 11.3157 20.8609 11.5144 20.702L16.0442 16.1722C16.4018 15.8146 16.4018 15.2583 16.0442 14.9404L16.0044 14.9007ZM23.9117 24.7152L22.5607 7.86755C22.4812 6.7947 21.5673 5.92053 20.4548 5.92053H17.7925V5.80132C17.7925 2.62252 15.2097 0 11.9912 0C8.81238 0 6.18986 2.58278 6.18986 5.80132V5.92053H3.52761C2.45476 5.92053 1.50112 6.75497 1.42165 7.86755L0.0706553 24.755C-0.04855 26.106 0.428271 27.457 1.34218 28.4503C2.25609 29.4437 3.56734 30 4.91834 30H18.9051C20.2561 30 21.5673 29.4437 22.4812 28.4503C23.3952 27.457 23.872 26.106 23.7528 24.755L23.9117 24.7152ZM8.01767 5.80132C8.01767 3.57616 9.84549 1.74834 12.0707 1.74834C14.2958 1.74834 16.1236 3.57616 16.1236 5.80132V5.92053H8.05741V5.80132H8.01767ZM21.3687 27.2185C20.7726 27.8543 19.9382 28.2119 19.064 28.2119H5.07728C4.2031 28.2119 3.36867 27.8543 2.77264 27.2185C2.17662 26.5828 1.89847 25.7483 1.9382 24.8742L3.2892 7.98675C3.2892 7.82781 3.44814 7.66887 3.64681 7.66887H6.30906V9.81457C6.30906 10.2914 6.70642 10.6887 7.18324 10.6887C7.66006 10.6887 8.05741 10.2914 8.05741 9.81457V7.66887H16.1236V9.81457C16.1236 10.2914 16.521 10.6887 16.9978 10.6887C17.4746 10.6887 17.872 10.2914 17.872 9.81457V7.66887H20.5342C20.6932 7.66887 20.8521 7.78808 20.8918 7.98675L22.2428 24.8344C22.3223 25.7086 22.0044 26.543 21.4084 27.1788L21.3687 27.2185Z" fill="#CACED4"/>
</svg>
